<?xml version="1.0" encoding="UTF-8"?>
<svg id="Layer_2" data-name="Layer 2" xmlns="http://www.w3.org/2000/svg" viewBox="0 0 566.93 566.93">
  <path d="M155.69,182.47l218.82-123.44s.06,0,.06.03v240.75s-.06.06-.08.02l-27.49-67.19s-.03-.03-.04-.02l-88.79,17.86s-.04,0-.04-.02l-31.64-78.07s-.02-.03-.04-.02l-70.74,10.18s-.06-.05-.03-.07Z" fill="none" stroke="#7b22b3" stroke-miterlimit="10" stroke-width="4"/>
  <path d="M265.12,120.74l31.47-3.65c.68-.08,1.33.28,1.64.89l15.96,32.16c.39.78,1.21,1.25,2.08,1.2l44.13-2.65c.7-.04,1.35.36,1.62,1l12.56,28.04" fill="none" stroke="#7b22b3" stroke-miterlimit="10" stroke-width="4"/>
  <text transform="translate(81.86 425.46)" fill="#7b22b3" font-family="Microsoft-Yi-Baiti, &apos;Microsoft Yi Baiti&apos;" font-size="142" font-style="italic" letter-spacing="-.01em" stroke="#7b22b3" stroke-miterlimit="10"><tspan x="0" y="0">ASDEN</tspan></text>
</svg>