<?xml version="1.0" encoding="UTF-8"?>
<svg id="Layer_2" data-name="Layer 2" xmlns="http://www.w3.org/2000/svg" viewBox="0 0 225 225">
  <defs>
    <style>
      .cls-1 {
        font-size: 32px;
      }

      .cls-1, .cls-2, .cls-3 {
        font-family: PalatinoLinotype-Roman, 'Palatino Linotype';
      }

      .cls-1, .cls-2, .cls-3, .cls-4 {
        fill: #7b22b3;
      }

      .cls-2 {
        font-size: 15px;
        letter-spacing: -.05em;
      }

      .cls-3 {
        font-size: 27px;
        letter-spacing: -.05em;
      }
    </style>
  </defs>
  <path class="cls-4" d="M181.11,76.57s12.6,12.26,13.28,30.98c0,0,.96,14.71-8.74,28.01-.19.26.05.48.37.48,2.5.03,5.76-1.66,6.9-2.3,25-14.01,17.5-54.94-11.8-57.17Z"/>
  <path class="cls-4" d="M166.43,135.01c-.05-.13-.09-.26-.14-.39,8.75,5.14,20.21,5.3,29.11.41s14.9-14.66,15.24-24.8c4.94,6.56,6.36,15.62,3.67,23.37-7.3,20.96-40,22.87-47.88,1.4Z"/>
  <path class="cls-4" d="M211.57,143.3s-.14.17-.41.47c-1.77,1.91-9.19,9.05-22.05,9.55-14,.55-26.96-10.59-28.25-25.03,0-.05-.07-.07-.1-.03-.73,1.06-5.95,9.31.08,22.01,10.82,22.78,46.74,18.13,50.72-6.98Z"/>
  <path class="cls-4" d="M157.96,127.12c-3.32,7.91-2.87,17.33,1.22,24.88,4.11,7.61,11.83,13.17,20.34,14.67-13.33,5.24-28.95-2.1-31.54-16.73-1.55-8.73,2.59-18.21,10.06-23-.03.06-.05.12-.08.18Z"/>
  <path class="cls-4" d="M162.72,124.23s-7.03-4.59-14.91,0c-11.15,6.49-12.09,24.42-.75,31.15,0,0-3.47-10.72.74-20.26,0,0,3.86-10.21,14.92-10.89Z"/>
  <path class="cls-4" d="M167.92,125.54s.05,0,.04-.03c-.52-1-4.64-9.96-12.21-10.98,0,0-8.6-1.7-15.15,4.6,0,0-5.72,4.37-3.99,13.81.06.32.5.36.62.04,5.32-13.72,19.95-14.02,30.7-7.44Z"/>
  <text class="cls-3" transform="translate(11.26 100.33)"><tspan x="0" y="0">EVENTOS </tspan></text>
  <text class="cls-1" transform="translate(138.99 100.33)"><tspan x="0" y="0">MJ</tspan></text>
  <text class="cls-2" transform="translate(45.11 126.1)"><tspan x="0" y="0">ESPECIALES</tspan></text>
</svg>